<mxfile host="app.diagrams.net" modified="2021-07-31T06:48:19.197Z" agent="5.0 (Windows NT 10.0; Win64; x64) AppleWebKit/537.36 (KHTML, like Gecko) Chrome/89.0.4389.82 Safari/537.36" etag="wHyTYiClEGu3pGdluLH3" version="14.9.3" type="github">
  <diagram name="Page-1" id="c4acf3e9-155e-7222-9cf6-157b1a14988f">
    <mxGraphModel dx="1422" dy="762" grid="1" gridSize="10" guides="1" tooltips="1" connect="1" arrows="1" fold="1" page="1" pageScale="1" pageWidth="850" pageHeight="1100" background="none" math="0" shadow="0">
      <root>
        <mxCell id="0" />
        <mxCell id="1" parent="0" />
        <mxCell id="NtHtvuAMve170EUnNpiO-25" value="" style="edgeStyle=orthogonalEdgeStyle;rounded=0;orthogonalLoop=1;jettySize=auto;html=1;fontFamily=Courier New;fontSize=14;startSize=26;entryX=0.5;entryY=0;entryDx=0;entryDy=0;" edge="1" parent="1" source="NtHtvuAMve170EUnNpiO-5" target="NtHtvuAMve170EUnNpiO-19">
          <mxGeometry relative="1" as="geometry" />
        </mxCell>
        <mxCell id="NtHtvuAMve170EUnNpiO-5" value="FUObjectCreateListener" style="swimlane;fontStyle=1;align=center;verticalAlign=top;childLayout=stackLayout;horizontal=1;startSize=26;horizontalStack=0;resizeParent=1;resizeParentMax=0;resizeLast=0;collapsible=1;marginBottom=0;fontFamily=Courier New;fontSize=14;autosize=1;" vertex="1" parent="1">
          <mxGeometry x="120" y="50" width="230" height="86" as="geometry">
            <mxRectangle x="280" y="50" width="190" height="26" as="alternateBounds" />
          </mxGeometry>
        </mxCell>
        <mxCell id="NtHtvuAMve170EUnNpiO-6" value="+ field: type" style="text;strokeColor=none;fillColor=none;align=left;verticalAlign=top;spacingLeft=4;spacingRight=4;overflow=hidden;rotatable=0;points=[[0,0.5],[1,0.5]];portConstraint=eastwest;fontFamily=Courier New;fontSize=14;" vertex="1" parent="NtHtvuAMve170EUnNpiO-5">
          <mxGeometry y="26" width="230" height="26" as="geometry" />
        </mxCell>
        <mxCell id="NtHtvuAMve170EUnNpiO-7" value="" style="line;strokeWidth=1;fillColor=none;align=left;verticalAlign=middle;spacingTop=-1;spacingLeft=3;spacingRight=3;rotatable=0;labelPosition=right;points=[];portConstraint=eastwest;fontFamily=Courier New;fontSize=14;" vertex="1" parent="NtHtvuAMve170EUnNpiO-5">
          <mxGeometry y="52" width="230" height="8" as="geometry" />
        </mxCell>
        <mxCell id="NtHtvuAMve170EUnNpiO-8" value="+ method(type): type" style="text;strokeColor=none;fillColor=none;align=left;verticalAlign=top;spacingLeft=4;spacingRight=4;overflow=hidden;rotatable=0;points=[[0,0.5],[1,0.5]];portConstraint=eastwest;fontFamily=Courier New;fontSize=14;" vertex="1" parent="NtHtvuAMve170EUnNpiO-5">
          <mxGeometry y="60" width="230" height="26" as="geometry" />
        </mxCell>
        <mxCell id="NtHtvuAMve170EUnNpiO-23" value="" style="edgeStyle=orthogonalEdgeStyle;rounded=0;orthogonalLoop=1;jettySize=auto;html=1;fontFamily=Courier New;fontSize=14;startSize=26;" edge="1" parent="1" source="NtHtvuAMve170EUnNpiO-12" target="NtHtvuAMve170EUnNpiO-19">
          <mxGeometry relative="1" as="geometry" />
        </mxCell>
        <mxCell id="NtHtvuAMve170EUnNpiO-12" value="FUObjectArray::FUObjectDeleteListener" style="swimlane;fontStyle=1;align=center;verticalAlign=top;childLayout=stackLayout;horizontal=1;startSize=26;horizontalStack=0;resizeParent=1;resizeParentMax=0;resizeLast=0;collapsible=1;marginBottom=0;fontFamily=Courier New;fontSize=14;flipH=1;flipV=0;autosize=1;" vertex="1" parent="1">
          <mxGeometry x="390" y="50" width="350" height="86" as="geometry">
            <mxRectangle x="500" y="50" width="190" height="26" as="alternateBounds" />
          </mxGeometry>
        </mxCell>
        <mxCell id="NtHtvuAMve170EUnNpiO-13" value="+ field: type" style="text;strokeColor=none;fillColor=none;align=left;verticalAlign=top;spacingLeft=4;spacingRight=4;overflow=hidden;rotatable=0;points=[[0,0.5],[1,0.5]];portConstraint=eastwest;fontFamily=Courier New;fontSize=14;" vertex="1" parent="NtHtvuAMve170EUnNpiO-12">
          <mxGeometry y="26" width="350" height="26" as="geometry" />
        </mxCell>
        <mxCell id="NtHtvuAMve170EUnNpiO-14" value="" style="line;strokeWidth=1;fillColor=none;align=left;verticalAlign=middle;spacingTop=-1;spacingLeft=3;spacingRight=3;rotatable=0;labelPosition=right;points=[];portConstraint=eastwest;fontFamily=Courier New;fontSize=14;" vertex="1" parent="NtHtvuAMve170EUnNpiO-12">
          <mxGeometry y="52" width="350" height="8" as="geometry" />
        </mxCell>
        <mxCell id="NtHtvuAMve170EUnNpiO-15" value="+ method(type): type" style="text;strokeColor=none;fillColor=none;align=left;verticalAlign=top;spacingLeft=4;spacingRight=4;overflow=hidden;rotatable=0;points=[[0,0.5],[1,0.5]];portConstraint=eastwest;fontFamily=Courier New;fontSize=14;" vertex="1" parent="NtHtvuAMve170EUnNpiO-12">
          <mxGeometry y="60" width="350" height="26" as="geometry" />
        </mxCell>
        <mxCell id="NtHtvuAMve170EUnNpiO-19" value="FLuaContext&#xa;" style="swimlane;fontStyle=1;align=center;verticalAlign=top;childLayout=stackLayout;horizontal=1;startSize=28;horizontalStack=0;resizeParent=1;resizeParentMax=0;resizeLast=0;collapsible=1;marginBottom=0;fontFamily=Courier New;fontSize=14;flipH=1;flipV=0;autosize=1;container=0;resizeHeight=1;resizeWidth=1;arcSize=15;fixDash=0;snapToPoint=0;portConstraintRotation=0;noLabel=0;shadow=0;glass=0;sketch=0;rounded=1;" vertex="1" parent="1">
          <mxGeometry x="190" y="330" width="420" height="88" as="geometry">
            <mxRectangle x="500" y="50" width="190" height="26" as="alternateBounds" />
          </mxGeometry>
        </mxCell>
        <mxCell id="NtHtvuAMve170EUnNpiO-20" value="+ field: type" style="text;strokeColor=none;fillColor=none;align=left;verticalAlign=top;spacingLeft=4;spacingRight=4;overflow=hidden;rotatable=0;points=[[0,0.5],[1,0.5]];portConstraint=eastwest;fontFamily=Courier New;fontSize=14;" vertex="1" parent="NtHtvuAMve170EUnNpiO-19">
          <mxGeometry y="28" width="420" height="26" as="geometry" />
        </mxCell>
        <mxCell id="NtHtvuAMve170EUnNpiO-21" value="" style="line;strokeWidth=1;fillColor=none;align=left;verticalAlign=middle;spacingTop=-1;spacingLeft=3;spacingRight=3;rotatable=0;labelPosition=right;points=[];portConstraint=eastwest;fontFamily=Courier New;fontSize=14;" vertex="1" parent="NtHtvuAMve170EUnNpiO-19">
          <mxGeometry y="54" width="420" height="8" as="geometry" />
        </mxCell>
        <mxCell id="NtHtvuAMve170EUnNpiO-22" value="+ bool TryToBindLua(UObjectBaseUtility *Object);" style="text;strokeColor=none;fillColor=none;align=left;verticalAlign=top;spacingLeft=4;spacingRight=4;overflow=hidden;rotatable=0;points=[[0,0.5],[1,0.5]];portConstraint=eastwest;fontFamily=Courier New;fontSize=14;autosize=1;container=0;" vertex="1" parent="NtHtvuAMve170EUnNpiO-19">
          <mxGeometry y="62" width="420" height="26" as="geometry" />
        </mxCell>
      </root>
    </mxGraphModel>
  </diagram>
</mxfile>
